<svg width="231" height="231" fill="none" xmlns="http://www.w3.org/2000/svg"><g clip-path="url(#clip0)"><path fill-rule="evenodd" clip-rule="evenodd" d="M207.685 146.379h-47.422c-10.756 0-17.842 9.4-24.991 16.831-.767.754-1.586.869-2.519 0l-12.035-12.035c-4.873-4.873-12.853-4.873-17.726 0-4.886 4.886-4.886 12.866 0 17.738l22.164 22.164c4.949 4.95 12.93 4.809 17.738 0l14.312-14.311v39.736a7.574 7.574 0 006.561 6.574h57.283a7.6 7.6 0 006.573-6.574v-50.184c.001-10.961-8.977-19.939-19.938-19.939z" fill="#A05CBF"/><path fill-rule="evenodd" clip-rule="evenodd" d="M86.584 216.502v-50.184c0-10.961-8.978-19.938-19.94-19.938H23.316c-10.96 0-19.925 8.977-19.925 19.938v50.184a7.574 7.574 0 006.56 6.574h70.06a7.6 7.6 0 006.573-6.574z" fill="#4F78E5"/><path fill-rule="evenodd" clip-rule="evenodd" d="M18.954 7.937H71.02c3.94 0 7.162 3.223 7.162 7.162v46.923c0 3.94-3.223 7.162-7.162 7.162H55.212l-7.827 10.41c-1.65 2.187-3.121 2.226-4.796 0l-7.84-10.41H18.954c-3.952 0-7.175-3.223-7.175-7.162V15.1c0-3.94 3.223-7.162 7.175-7.162z" fill="#E1F1FF"/><path fill-rule="evenodd" clip-rule="evenodd" d="M67.234 7.937h3.785c3.94 0 7.162 3.223 7.162 7.162v46.923c0 3.94-3.223 7.162-7.162 7.162H55.212l-7.827 10.41c-1.65 2.187-3.121 2.226-4.796 0l-7.84-10.41H18.954c-3.952 0-7.175-3.223-7.175-7.162v-3.786h48.293c3.939 0 7.162-3.222 7.162-7.161V7.937z" fill="#CBE2FF"/><path fill-rule="evenodd" clip-rule="evenodd" d="M120.513 7.937h100.038c3.888 0 7.072 3.185 7.072 7.073v47.102c0 3.888-3.184 7.072-7.072 7.072h-58.997l-7.827 10.41c-1.484 1.958-3.108 2.239-4.796 0l-7.84-10.41h-20.578c-3.887 0-7.072-3.184-7.072-7.072V15.01c0-3.889 3.185-7.073 7.072-7.073z" fill="#E1F1FF"/><path fill-rule="evenodd" clip-rule="evenodd" d="M205.946 128.667c0 12.137-9.924 22.048-22.061 22.048-12.124 0-22.049-9.911-22.049-22.048v-23.635c0-6.79 5.551-12.341 12.342-12.341h19.427c6.791 0 12.341 5.55 12.341 12.341v23.635z" fill="#FFCBBE"/><path fill-rule="evenodd" clip-rule="evenodd" d="M161.836 105.032v14.503l15.078-7.38c2.034-1.01 4.003-1.1 6.062-.396l22.97 7.776v-14.503c0-6.791-5.551-12.341-12.342-12.341h-19.427c-6.791 0-12.341 5.55-12.341 12.341z" fill="#424242"/><path fill-rule="evenodd" clip-rule="evenodd" d="M67.041 128.667c0 12.124-9.924 22.048-22.06 22.048-12.125 0-22.05-9.911-22.05-22.048v-23.635c0-6.79 5.552-12.341 12.342-12.341H54.7c6.779 0 12.342 5.55 12.342 12.341v23.635z" fill="#FFCBBE"/><path fill-rule="evenodd" clip-rule="evenodd" d="M22.931 105.032v8.594c6.216 2.302 11.408.358 14.401-1.33 2.315-1.33 2.698-1.586 5 .435 10.59 9.272 24.71 4.118 24.71 4.118v-11.818c0-6.79-5.564-12.34-12.342-12.34H35.273c-6.791 0-12.342 5.55-12.342 12.341z" fill="#C68B87"/><path fill-rule="evenodd" clip-rule="evenodd" d="M186.033 146.379a21.894 21.894 0 01-7.623 3.645c1.753.46 3.594.69 5.474.69 4.898 0 9.439-1.611 13.096-4.335 5.436-4.028 8.966-10.474 8.966-17.713v-9.131l-10.948-3.709v12.84c0 7.239-3.53 13.685-8.965 17.713z" fill="#F7BEAF"/><path fill-rule="evenodd" clip-rule="evenodd" d="M194.998 105.032v10.794l10.948 3.709v-14.503c0-6.791-5.551-12.341-12.341-12.341h-10.948c6.778 0 12.341 5.55 12.341 12.341z" fill="#212121"/><path fill-rule="evenodd" clip-rule="evenodd" d="M56.094 118.217v10.449c0 7.239-3.543 13.685-8.965 17.713a21.898 21.898 0 01-7.623 3.645c1.752.46 3.594.69 5.474.69 4.898 0 9.426-1.611 13.096-4.335 5.423-4.028 8.965-10.474 8.965-17.713v-11.817s-4.834 1.765-10.947 1.368z" fill="#F7BEAF"/><path fill-rule="evenodd" clip-rule="evenodd" d="M43.74 92.69c6.79 0 12.354 5.55 12.354 12.342v13.185c6.113.397 10.947-1.368 10.947-1.368v-11.817c0-6.791-5.563-12.341-12.34-12.341H43.738z" fill="#BD7D79"/><path fill-rule="evenodd" clip-rule="evenodd" d="M75.636 166.318v50.184a7.6 7.6 0 01-6.573 6.574H80.01a7.6 7.6 0 006.574-6.574v-50.184c0-10.961-8.978-19.938-19.939-19.938h-8.568c-.051.05-.115.089-.166.128 9.936 1.112 17.725 9.591 17.725 19.81z" fill="#395BC4"/><path fill-rule="evenodd" clip-rule="evenodd" d="M216.676 166.318v50.184a7.6 7.6 0 01-6.573 6.574h10.947a7.6 7.6 0 006.574-6.574v-50.184c0-10.961-8.978-19.938-19.938-19.938h-10.705c10.858.14 19.695 9.054 19.695 19.938zM135.618 187.535c-2.852 2.865-6.715 4.041-10.398 3.606 4.949 4.886 12.891 4.719 17.675-.064l14.311-14.311V168.3c-.013-.921-1.164-1.369-1.829-.512l-19.759 19.747z" fill="#7F43A4"/><path fill-rule="evenodd" clip-rule="evenodd" d="M113.441 58.237v3.875c0 3.888 3.185 7.072 7.072 7.072h20.578l7.84 10.41c1.688 2.239 3.312 1.958 4.796 0l7.827-10.41h58.997c3.888 0 7.073-3.184 7.073-7.072V15.01c0-3.888-3.185-7.073-7.073-7.073h-3.875v43.228c0 3.887-3.185 7.072-7.072 7.072h-96.163z" fill="#CBE2FF"/><path d="M169.701 149.768h-9.438c-7.879 0-13.94 6.523-19.696 12.738-1.458 1.56-2.89 3.095-4.156 4.361a3.366 3.366 0 01-4.783 0l-13.302-13.301c-3.568-3.555-9.387-3.555-12.942 0-3.543 3.543-3.543 9.413 0 12.956l5.666 5.665a3.39 3.39 0 010 4.784 3.406 3.406 0 01-4.797 0l-5.652-5.666c-6.177-6.164-6.177-16.357 0-22.522 6.19-6.19 16.319-6.19 22.509 0l10.871 10.871c.563-.588 1.1-1.164 1.637-1.752 6.74-7.264 13.838-14.899 24.645-14.899h2.597a25.35 25.35 0 01-4.49-14.413v-23.711c0-4.349 1.778-8.288 4.63-11.153 2.865-2.851 6.804-4.63 11.153-4.63h19.478c4.348 0 8.287 1.778 11.152 4.63 2.852 2.865 4.63 6.804 4.63 11.153v23.711a25.365 25.365 0 01-4.489 14.413h2.763c6.42 0 12.252 2.622 16.472 6.842 4.22 4.233 6.842 10.053 6.842 16.473v56.758a3.373 3.373 0 01-3.376 3.376h-70.419a3.384 3.384 0 01-3.39-3.376v-38.137l-8.53 8.53a15.928 15.928 0 01-11.28 4.655 15.835 15.835 0 01-11.242-4.655l-5.666-5.666a3.389 3.389 0 010-4.783 3.39 3.39 0 014.784 0l5.666 5.665a9.099 9.099 0 006.458 2.673 9.188 9.188 0 006.497-2.673l14.311-14.31a3.388 3.388 0 014.784 0c.651.665.984 1.522.984 2.391v42.92h41.143v-43.879a3.395 3.395 0 013.389-3.389 3.383 3.383 0 013.377 3.389v43.879h15.744v-53.369c0-4.54-1.868-8.684-4.86-11.689-3.006-2.993-7.137-4.86-11.689-4.86l-9.592-.013a25.273 25.273 0 01-14.209 4.349 25.27 25.27 0 01-14.184-4.336zM63.729 121.85l-22.56-7.648-14.938 7.315v7.073c0 5.154 2.11 9.834 5.512 13.236 3.402 3.402 8.083 5.512 13.238 5.512 5.153 0 9.847-2.11 13.236-5.512 3.402-3.402 5.512-8.082 5.512-13.236v-6.74zm-37.498-7.84l13.033-6.369a3.347 3.347 0 012.762-.282l21.703 7.354v-9.835a8.98 8.98 0 00-2.647-6.369 8.982 8.982 0 00-6.356-2.647H35.235c-2.469 0-4.72 1.023-6.357 2.66a8.98 8.98 0 00-2.647 6.356v9.132zm176.402 7.008c-5.729.959-15.884 1.228-24.12-6.33-2.775 1.701-7.546 3.811-13.365 3.082v10.82c0 5.154 2.11 9.834 5.499 13.236 3.402 3.402 8.096 5.512 13.237 5.512 5.154 0 9.848-2.11 13.25-5.512 3.389-3.402 5.499-8.082 5.499-13.236v-7.572zm-37.485-10.064c4.131.792 8.39-.525 11.549-3.249a3.378 3.378 0 014.758.346c6.995 8.044 16.805 7.072 21.178 6.113v-9.285a8.982 8.982 0 00-2.647-6.37 8.98 8.98 0 00-6.356-2.647h-19.478a8.942 8.942 0 00-6.357 2.66 8.93 8.93 0 00-2.647 6.357v6.075zM70.495 128.59a25.35 25.35 0 01-4.477 14.413h.627c6.42 0 12.252 2.622 16.473 6.842 4.22 4.233 6.842 10.053 6.842 16.473v56.758a3.373 3.373 0 01-3.376 3.376H3.39A3.384 3.384 0 010 223.076v-56.758c0-6.42 2.623-12.24 6.856-16.473 4.22-4.22 10.052-6.842 16.46-6.842h.639a25.36 25.36 0 01-4.49-14.413v-23.711c0-4.349 1.778-8.288 4.63-11.153 2.865-2.851 6.804-4.63 11.14-4.63h19.49c4.35 0 8.288 1.778 11.14 4.63 2.865 2.865 4.63 6.804 4.63 11.153v23.711zm-11.306 21.166a25.27 25.27 0 01-14.209 4.348 25.26 25.26 0 01-14.196-4.348l-7.47.012c-4.54 0-8.683 1.868-11.676 4.86-3.005 3.006-4.873 7.15-4.873 11.69v53.369H22.51v-43.88a3.387 3.387 0 013.389-3.389 3.384 3.384 0 013.376 3.389v43.88h31.41v-43.88a3.395 3.395 0 013.39-3.389 3.395 3.395 0 013.389 3.389v43.88h15.73v-53.369c0-4.54-1.853-8.684-4.86-11.69-3.005-2.992-7.136-4.86-11.689-4.86l-7.455-.012zM134.62 27.504a3.384 3.384 0 01-3.376-3.389 3.373 3.373 0 013.376-3.376h71.825a3.373 3.373 0 013.376 3.376c0 1.867-1.51 3.39-3.376 3.39H134.62zm0 28.878a3.373 3.373 0 01-3.376-3.376 3.384 3.384 0 013.376-3.39h56.337a3.384 3.384 0 013.376 3.39 3.373 3.373 0 01-3.376 3.377H134.62zm0-14.439a3.376 3.376 0 01-3.376-3.389 3.373 3.373 0 013.376-3.376h71.825a3.373 3.373 0 013.376 3.376c0 1.88-1.51 3.39-3.376 3.39H134.62zM37.281 30.881c0 1.867-1.51 3.39-3.376 3.39a3.395 3.395 0 01-3.39-3.39c0-3.99 1.625-7.61 4.234-10.231a14.475 14.475 0 0110.231-4.234 14.454 14.454 0 0114.465 14.465c0 4.003-1.611 7.61-4.233 10.231a14.398 14.398 0 01-6.842 3.837 3.398 3.398 0 01-3.39 3.223 3.384 3.384 0 01-3.376-3.39V41.97c0-1.867 1.51-3.39 3.377-3.39a7.662 7.662 0 005.447-2.25 7.662 7.662 0 002.251-5.448 7.63 7.63 0 00-2.25-5.436 7.673 7.673 0 00-10.884 0 7.643 7.643 0 00-2.264 5.436zm4.323 25.987a3.373 3.373 0 013.376-3.376c1.867 0 3.39 1.509 3.39 3.376v2.072a3.384 3.384 0 01-3.39 3.376 3.373 3.373 0 01-3.376-3.376v-2.072zm136.589-45.554a3.373 3.373 0 01-3.376-3.377 3.384 3.384 0 013.376-3.39h42.358c2.878 0 5.487 1.177 7.38 3.07A10.441 10.441 0 01231 15.01v47.102c0 2.878-1.176 5.5-3.069 7.392a10.415 10.415 0 01-7.38 3.07h-57.322L154.021 84.8c-1.368 1.829-4.118 1.777-5.436-.064l-9.157-12.163h-18.915a10.41 10.41 0 01-7.379-3.07 10.44 10.44 0 01-3.07-7.392V15.01c0-2.877 1.176-5.5 3.07-7.392a10.411 10.411 0 017.379-3.07h42.358a3.383 3.383 0 013.376 3.39 3.373 3.373 0 01-3.376 3.377h-42.358c-1.01 0-1.931.421-2.597 1.086a3.676 3.676 0 00-1.086 2.61v47.102c0 1.01.409 1.931 1.086 2.61a3.68 3.68 0 002.597 1.086h20.577c1.024 0 2.047.474 2.699 1.356l7.533 10 7.354-9.757a3.389 3.389 0 012.877-1.599h58.997a3.678 3.678 0 002.597-1.087 3.673 3.673 0 001.087-2.61V15.01c0-1.01-.409-1.931-1.087-2.61a3.677 3.677 0 00-2.597-1.086h-42.357zm-125.54 0c-1.88 0-3.389-1.51-3.389-3.377 0-1.867 1.51-3.39 3.39-3.39h18.365c2.903 0 5.538 1.19 7.456 3.096 1.906 1.918 3.095 4.553 3.095 7.455v46.924c0 2.903-1.19 5.537-3.095 7.456-1.918 1.906-4.553 3.095-7.456 3.095H56.887l-9.209 12.226c-1.368 1.83-4.117 1.778-5.435-.064l-9.157-12.163H18.954c-2.916 0-5.55-1.189-7.456-3.095-1.906-1.918-3.095-4.553-3.095-7.456V15.1c0-2.903 1.19-5.537 3.095-7.456a10.516 10.516 0 017.456-3.095H37.32a3.395 3.395 0 013.389 3.39 3.384 3.384 0 01-3.39 3.376H18.955a3.823 3.823 0 00-2.673 1.113 3.77 3.77 0 00-1.113 2.672v46.924a3.77 3.77 0 001.113 2.672 3.825 3.825 0 002.673 1.113H34.75c1.023 0 2.046.473 2.698 1.355l7.533 10.001 7.354-9.758a3.39 3.39 0 012.878-1.598h15.807a3.828 3.828 0 002.673-1.113 3.826 3.826 0 001.113-2.672V15.099a3.825 3.825 0 00-1.113-2.673 3.825 3.825 0 00-2.673-1.112H52.654z" fill="#000"/></g><defs><clipPath id="clip0"><path fill="#fff" d="M0 0h231v231H0z"/></clipPath></defs></svg>