<svg width="230" height="230" fill="none" xmlns="http://www.w3.org/2000/svg"><g clip-path="url(#clip0)"><path fill-rule="evenodd" clip-rule="evenodd" d="M115 194.918c44.008 0 79.917-35.897 79.917-79.918 0-44.009-35.91-79.905-79.917-79.905-44.008 0-79.917 35.896-79.917 79.905 0 44.021 35.91 79.918 79.917 79.918z" fill="#E1F1FF"/><path fill-rule="evenodd" clip-rule="evenodd" d="M115 35.095c44.135 0 79.917 35.77 79.917 79.905 0 44.136-35.782 79.918-79.917 79.918-1.834 0-3.655-.077-5.45-.191 41.589-2.801 74.454-37.425 74.454-79.727 0-42.302-32.866-76.913-74.454-79.727a85.6 85.6 0 015.45-.178z" fill="#CBE2FF"/><path fill-rule="evenodd" clip-rule="evenodd" d="M175.243 93.976c24.945 0 45.294-20.349 45.294-45.307 0-24.945-20.349-45.294-45.294-45.294-24.958 0-45.306 20.349-45.306 45.294 0 24.958 20.348 45.307 45.306 45.307zM54.757 226.639c24.958 0 45.306-20.362 45.306-45.307 0-24.959-20.348-45.308-45.306-45.308-24.946 0-45.295 20.349-45.295 45.308 0 24.945 20.349 45.307 45.295 45.307z" fill="#F5F5F5"/><path fill-rule="evenodd" clip-rule="evenodd" d="M175.243 93.976c25.009 0 45.294-20.285 45.294-45.307 0-16.516-8.837-30.968-22.055-38.89a45.069 45.069 0 016.418 23.253c0 25.022-20.285 45.307-45.307 45.307a45.109 45.109 0 01-23.252-6.417c7.922 13.217 22.374 22.054 38.902 22.054zM54.757 226.638c25.022 0 45.306-20.285 45.306-45.306 0-16.529-8.837-30.983-22.055-38.89 4.075 6.787 6.418 14.746 6.418 23.239 0 25.022-20.285 45.308-45.307 45.308a45.182 45.182 0 01-23.252-6.406c7.92 13.205 22.374 22.055 38.89 22.055z" fill="#E0E0E0"/><path fill-rule="evenodd" clip-rule="evenodd" d="M159.734 53.266h31.006c7.844 0 14.274 6.418 14.274 14.274v15.281c-7.97 6.953-18.374 11.155-29.771 11.155a45.152 45.152 0 01-29.784-11.155v-15.28c0-7.857 6.43-14.275 14.275-14.275z" fill="#4F78E5"/><path fill-rule="evenodd" clip-rule="evenodd" d="M39.26 185.928h31.006c7.845 0 14.275 6.418 14.275 14.262v15.281c-7.972 6.952-18.375 11.167-29.784 11.167-11.397 0-21.8-4.215-29.772-11.167V200.19c0-7.844 6.43-14.262 14.275-14.262z" fill="#A05CBF"/><path fill-rule="evenodd" clip-rule="evenodd" d="M69.21 176.123c0 7.946-6.495 14.453-14.453 14.453-7.946 0-14.44-6.507-14.44-14.453v-15.485c0-4.457 3.629-8.086 8.085-8.086h18.655c1.49 0 2.152.853 2.152 2.152v21.419z" fill="#FFCBBE"/><path fill-rule="evenodd" clip-rule="evenodd" d="M40.316 160.638v4.661H69.21v-10.595c0-1.299-.662-2.152-2.152-2.152H48.402c-4.456 0-8.086 3.63-8.086 8.086z" fill="#C68B87"/><path fill-rule="evenodd" clip-rule="evenodd" d="M189.696 43.474c0 7.945-6.507 14.44-14.453 14.44-7.958 0-14.453-6.495-14.453-14.44V27.976c0-4.444 3.642-8.085 8.086-8.085h12.721c4.457 0 8.099 3.641 8.099 8.085v15.498z" fill="#FFCBBE"/><path fill-rule="evenodd" clip-rule="evenodd" d="M160.791 27.976v5.629c4.075 1.515 7.475.242 9.423-.866 1.528-.866 1.783-1.032 3.285.28 6.94 6.073 16.198 2.7 16.198 2.7v-7.743c0-4.444-3.642-8.085-8.099-8.085h-12.721c-4.445 0-8.086 3.642-8.086 8.085z" fill="#424242"/><path fill-rule="evenodd" clip-rule="evenodd" d="M178.783 35.96v7.514c0 6.023-3.731 11.205-8.99 13.37a14.09 14.09 0 005.45 1.07c7.946 0 14.453-6.494 14.453-14.44v-7.755s-5.322 1.935-10.913.242z" fill="#F7BEAF"/><path fill-rule="evenodd" clip-rule="evenodd" d="M170.697 19.89c4.457 0 8.086 3.642 8.086 8.086v7.985c5.59 1.693 10.913-.242 10.913-.242v-7.743c0-4.444-3.642-8.085-8.098-8.085h-10.901z" fill="#212121"/><path fill-rule="evenodd" clip-rule="evenodd" d="M56.157 152.552c1.49 0 2.153.853 2.153 2.152v10.595h10.9v-10.595c0-1.299-.662-2.152-2.152-2.152h-10.9z" fill="#BD7D79"/><path fill-rule="evenodd" clip-rule="evenodd" d="M58.31 165.299v10.824c0 6.023-3.732 11.219-9.003 13.383a14.429 14.429 0 005.45 1.07c7.958 0 14.452-6.507 14.452-14.453v-10.824h-10.9z" fill="#F7BEAF"/><path fill-rule="evenodd" clip-rule="evenodd" d="M194.115 67.54v22.336a45.849 45.849 0 0010.9-7.054V67.54c0-7.883-6.456-14.275-14.274-14.275h-4.903c-.306.331-.611.637-.942.93 5.539 2.113 9.219 7.436 9.219 13.345z" fill="#395BC4"/><path fill-rule="evenodd" clip-rule="evenodd" d="M73.628 200.19v22.335a44.906 44.906 0 0010.913-7.054V200.19c0-7.869-6.456-14.262-14.275-14.262h-4.902c-.305.319-.61.624-.942.929 5.538 2.114 9.206 7.437 9.206 13.333z" fill="#7F43A4"/><path d="M71.361 182.592a17.522 17.522 0 0111.359 5.144 17.522 17.522 0 015.17 12.454v6.85c5.526-7.092 8.811-16.018 8.811-25.708 0-11.576-4.698-22.069-12.287-29.658-7.59-7.59-18.07-12.276-29.657-12.276-11.575 0-22.055 4.687-29.645 12.276-7.59 7.589-12.288 18.082-12.288 29.658a41.77 41.77 0 008.8 25.696v-6.838c0-4.852 1.986-9.257 5.17-12.454 2.954-2.954 6.952-4.877 11.37-5.144a17.66 17.66 0 01-1.222-6.469v-15.485c0-3.158 1.286-6.023 3.361-8.098a11.424 11.424 0 018.099-3.362h20.807a3.365 3.365 0 013.374 3.375v23.571a17.64 17.64 0 01-1.222 6.468zm-27.683-20.655h22.17v-6.023H48.401c-1.3 0-2.47.535-3.336 1.388a4.74 4.74 0 00-1.389 3.336v1.299h.001zm22.17 6.736h-22.17v7.45c0 6.086 4.992 11.078 11.079 11.078 6.1 0 11.09-4.992 11.09-11.078v-7.45zM186.322 39.844c-3.922.433-9.754.127-14.733-4.036-1.783.968-4.355 1.936-7.437 1.846v5.82c0 3.043 1.248 5.806 3.26 7.818 2.012 2.012 4.775 3.26 7.832 3.26 3.043 0 5.806-1.248 7.818-3.26 2.012-2.012 3.26-4.775 3.26-7.818v-3.63zm-22.17-8.914c1.999.128 4.139-.649 5.628-1.973a3.363 3.363 0 014.737.344c3.757 4.304 8.889 4.265 11.805 3.794v-5.119c0-1.286-.535-2.47-1.389-3.323a4.663 4.663 0 00-3.336-1.388h-12.721c-1.299 0-2.47.522-3.336 1.388a4.71 4.71 0 00-1.388 3.323v2.954zM42.787 189.29H39.26c-2.993 0-5.718 1.235-7.692 3.209a10.818 10.818 0 00-3.209 7.691v13.728a41.949 41.949 0 009.64 5.857v-13.346a3.361 3.361 0 013.361-3.374 3.372 3.372 0 013.374 3.374v15.625a41.92 41.92 0 0010.022 1.21c3.464 0 6.825-.42 10.034-1.21v-15.625a3.372 3.372 0 013.375-3.374 3.361 3.361 0 013.361 3.374v13.346a41.63 41.63 0 009.653-5.87V200.19c0-2.979-1.236-5.704-3.222-7.691-1.973-1.974-4.699-3.209-7.691-3.209h-3.527a17.708 17.708 0 01-11.983 4.661 17.71 17.71 0 01-11.97-4.661zM193.058 43.474c0 2.266-.433 4.456-1.222 6.455 4.418.28 8.416 2.19 11.37 5.145a17.615 17.615 0 015.157 12.466v6.851a41.745 41.745 0 008.812-25.723c0-11.575-4.699-22.055-12.288-29.644-7.589-7.59-18.069-12.288-29.644-12.288-11.588 0-22.068 4.699-29.657 12.288-7.59 7.59-12.288 18.07-12.288 29.644a41.715 41.715 0 008.799 25.697V67.54c0-4.864 1.987-9.27 5.183-12.466a17.584 17.584 0 0111.358-5.145 17.595 17.595 0 01-1.222-6.455V27.976a11.42 11.42 0 013.361-8.085 11.426 11.426 0 018.099-3.362h12.721c3.158 0 6.023 1.286 8.098 3.361a11.416 11.416 0 013.362 8.086v15.498h.001zm-5.845 13.166a17.751 17.751 0 01-11.97 4.649c-4.61 0-8.812-1.77-11.982-4.649h-3.528a10.861 10.861 0 00-7.691 3.197c-1.986 1.986-3.209 4.711-3.209 7.703v13.715a42 42 0 009.639 5.87V73.767a3.37 3.37 0 013.362-3.374 3.38 3.38 0 013.374 3.374v15.637a41.94 41.94 0 0010.035 1.21c3.451 0 6.812-.42 10.022-1.21V73.767a3.38 3.38 0 013.374-3.374 3.37 3.37 0 013.362 3.374v13.358a41.835 41.835 0 009.651-5.883V67.54c0-2.992-1.234-5.718-3.221-7.704a10.86 10.86 0 00-7.691-3.196h-3.527zm-92.79 96.46c2.903-.56 5.997-1.019 9.18-1.375 2.661-.28 5.361-.484 8.022-.573v-32.777h-33.68c.076 3.375.254 6.698.534 9.945.344 3.948.828 7.73 1.426 11.334a48.39 48.39 0 019.27 7.258 49.608 49.608 0 015.247 6.188zm23.952-1.961c10.008.306 19.457 1.986 27.887 4.737 3.412-10.951 5.5-23.762 5.794-37.502h-33.681v32.765zm34.19 7.08c6.621 2.776 12.428 6.265 17.165 10.301a76.952 76.952 0 0012.135-16.222 3.362 3.362 0 014.572-1.299 3.348 3.348 0 011.299 4.559 83.565 83.565 0 01-30.638 31.3c-12.364 7.258-26.754 11.422-42.098 11.422-2.865 0-5.755-.153-8.646-.445a87.107 87.107 0 01-5.526-.765 48.492 48.492 0 01-11.651 18.682C80.377 224.55 68.203 230 54.757 230a48.52 48.52 0 01-34.407-14.249c-8.812-8.813-14.262-20.986-14.262-34.42 0-13.448 5.45-25.608 14.262-34.42a48.534 48.534 0 0114.313-9.919 81.433 81.433 0 01-1.987-9.36A84.4 84.4 0 0131.721 115c0-4.775.408-9.487 1.197-14.083a82.79 82.79 0 013.54-13.639 3.358 3.358 0 014.291-2.05 3.348 3.348 0 012.05 4.291 75.736 75.736 0 00-3.247 12.531 75.882 75.882 0 00-1.019 9.589h32.675c.293-14.568 2.534-28.18 6.227-39.857-6.622-2.777-12.429-6.265-17.166-10.29a76.23 76.23 0 00-11.307 14.784 3.374 3.374 0 01-4.597 1.198 3.354 3.354 0 01-1.197-4.597 83.67 83.67 0 0130.51-30.192C85.866 35.705 99.962 31.72 115 31.72c2.865 0 5.755.153 8.646.459a87.12 87.12 0 015.527.751c2.419-7.105 6.456-13.472 11.651-18.668C149.623 5.45 161.796 0 175.243 0c13.434 0 25.608 5.45 34.407 14.262 8.811 8.8 14.262 20.973 14.262 34.407 0 13.448-5.451 25.62-14.262 34.42a48.82 48.82 0 01-14.313 9.932 81.688 81.688 0 011.987 9.347 84.4 84.4 0 01.955 12.632c0 4.444-.357 8.85-1.057 13.192a82.522 82.522 0 01-3.095 12.811 3.363 3.363 0 01-4.24 2.164 3.357 3.357 0 01-2.152-4.24 78.402 78.402 0 002.865-11.791c.446-2.84.739-5.769.866-8.761h-32.674c-.293 14.554-2.534 28.167-6.227 39.844zm12.224 14.924c-4.011-3.298-8.888-6.202-14.44-8.557a95.923 95.923 0 01-3.744 8.443c-3.183 6.29-6.901 11.613-11.015 15.726a76.37 76.37 0 0029.199-15.612zm-20.743-10.913c-7.73-2.508-16.427-4.049-25.672-4.355v33.338c8.493-1.643 16.274-9.449 22.233-21.215a83.803 83.803 0 003.439-7.768zm-32.421-4.342a106.78 106.78 0 00-7.321.522c-2.076.229-4.139.522-6.15.853a48.466 48.466 0 015.284 22.068c0 2.037-.127 4.049-.369 6.023 1.693 1.209 3.425 2.19 5.208 2.891 1.108.433 2.216.764 3.349.98v-33.337h-.001zM65.211 56.858c4.011 3.31 8.901 6.2 14.453 8.569a90.602 90.602 0 013.73-8.443c3.184-6.29 6.89-11.614 11.016-15.726a76.474 76.474 0 00-17.382 7.27 76.26 76.26 0 00-11.817 8.33zM85.954 67.77c7.73 2.521 16.427 4.05 25.671 4.355V38.788c-8.493 1.642-16.273 9.448-22.233 21.228a82.088 82.088 0 00-3.438 7.754zm32.421 4.355a94.437 94.437 0 007.513-.522 96.185 96.185 0 005.972-.828 48.48 48.48 0 01-5.298-22.106c0-2.037.128-4.036.37-6.01-1.681-1.223-3.426-2.19-5.209-2.891a18.902 18.902 0 00-3.348-.98v33.337zm17.215 4.788a101.237 101.237 0 01-8.989 1.376c-2.713.292-5.463.496-8.226.572v32.777h33.681c-.077-3.387-.255-6.71-.535-9.957-.344-3.948-.828-7.73-1.426-11.321a48.328 48.328 0 01-9.271-7.271 48.429 48.429 0 01-5.234-6.176zm-23.965 1.948c-10.008-.306-19.457-1.986-27.887-4.737-3.412 10.964-5.5 23.762-5.793 37.514h33.681V78.861h-.001zm45.816 15.128c.319 2.356.586 4.725.79 7.118.293 3.438.484 6.953.56 10.531h32.675a73.371 73.371 0 00-.802-8.264 74.825 74.825 0 00-1.656-7.997 48.676 48.676 0 01-13.765 1.974 48.563 48.563 0 01-17.802-3.362zM72.558 136.01a146.208 146.208 0 01-.79-7.106 166.73 166.73 0 01-.56-10.53H38.533a76.668 76.668 0 002.458 16.261 48.678 48.678 0 0113.766-1.974 48.55 48.55 0 0117.801 3.349z" fill="#000"/></g><defs><clipPath id="clip0"><path fill="#fff" d="M0 0h230v230H0z"/></clipPath></defs></svg>