<svg height="512" width="512" xmlns="http://www.w3.org/2000/svg"><g clip-rule="evenodd" fill-rule="evenodd"><path d="M460.324 324.442h-105.11c-23.84 0-39.544 20.835-55.39 37.304-1.7 1.672-3.515 1.927-5.584 0l-26.675-26.674c-10.8-10.8-28.488-10.8-39.288 0-10.829 10.829-10.829 28.517 0 39.316l49.125 49.125c10.97 10.97 28.658 10.659 39.316 0l31.721-31.719v88.072c.935 7.597 6.944 13.607 14.542 14.57h126.965c7.597-.963 13.606-6.973 14.57-14.57V368.635c.001-24.293-19.899-44.193-44.192-44.193z" fill="#ebd2ff"/><path d="M191.908 479.866V368.635c0-24.293-19.899-44.192-44.193-44.192H51.677c-24.294 0-44.164 19.899-44.164 44.192v111.231c.935 7.597 6.944 13.607 14.541 14.57h155.284c7.597-.963 13.606-6.973 14.57-14.57z" fill="#a5cdff"/><path d="M42.011 17.592h115.4c8.73 0 15.874 7.144 15.874 15.874v104.003c0 8.731-7.144 15.874-15.874 15.874h-35.036l-17.349 23.074c-3.657 4.847-6.917 4.932-10.63 0l-17.377-23.074H42.011c-8.76 0-15.903-7.143-15.903-15.874V33.466c-.001-8.731 7.143-15.874 15.903-15.874z" fill="#e1f1ff"/><path d="M149.02 17.592h8.391c8.73 0 15.874 7.144 15.874 15.874v104.003c0 8.731-7.144 15.874-15.874 15.874h-35.036l-17.349 23.074c-3.657 4.847-6.917 4.932-10.63 0l-17.377-23.074H42.011c-8.76 0-15.903-7.143-15.903-15.874v-8.391h107.038c8.731 0 15.874-7.143 15.874-15.874z" fill="#cbe2ff"/><path d="M267.112 17.592H488.84c8.617 0 15.676 7.059 15.676 15.676v104.4c0 8.618-7.059 15.676-15.676 15.676H358.077l-17.349 23.074c-3.288 4.337-6.888 4.96-10.63 0l-17.377-23.074h-45.609c-8.617 0-15.676-7.058-15.676-15.676v-104.4c0-8.618 7.059-15.676 15.676-15.676z" fill="#e1f1ff"/><path d="M456.469 285.183c0 26.901-21.997 48.869-48.898 48.869-26.872 0-48.869-21.968-48.869-48.869v-52.384c0-15.052 12.302-27.354 27.354-27.354h43.059c15.052 0 27.354 12.302 27.354 27.354z" fill="#ffcbbe"/><path d="M358.701 232.798v32.145l33.42-16.356c4.508-2.239 8.873-2.438 13.436-.879l50.911 17.235v-32.145c0-15.052-12.303-27.354-27.354-27.354h-43.059c-15.052 0-27.354 12.303-27.354 27.354z" fill="#ffe5a0"/><path d="M148.594 285.183c0 26.873-21.996 48.869-48.897 48.869-26.873 0-48.87-21.968-48.87-48.869v-52.384c0-15.052 12.303-27.354 27.355-27.354h43.059c15.024 0 27.354 12.302 27.354 27.354v52.384z" fill="#ffcbbe"/><path d="M50.826 232.798v19.049c13.776 5.102 25.285.793 31.919-2.948 5.13-2.948 5.98-3.515 11.083.963 23.471 20.551 54.766 9.127 54.766 9.127v-26.192c0-15.052-12.33-27.354-27.354-27.354H78.181c-15.052.001-27.355 12.304-27.355 27.355z" fill="#c68b87"/><path d="M412.333 324.442a48.541 48.541 0 01-16.896 8.079c3.885 1.02 7.966 1.53 12.133 1.53a48.467 48.467 0 0029.027-9.609c12.048-8.929 19.871-23.216 19.871-39.26v-20.239l-24.265-8.221v28.46c.001 16.045-7.823 30.331-19.87 39.26z" fill="#f7beaf"/><path d="M432.204 232.798v23.924l24.265 8.221v-32.145c0-15.052-12.303-27.354-27.354-27.354H404.85c15.023 0 27.354 12.303 27.354 27.354z" fill="#f2ce7e"/><path d="M124.329 262.023v23.159c0 16.044-7.852 30.331-19.871 39.26a48.545 48.545 0 01-16.895 8.079c3.884 1.02 7.966 1.53 12.133 1.53 10.856 0 20.892-3.571 29.027-9.609 12.019-8.929 19.87-23.216 19.87-39.26V258.99c.001 0-10.714 3.912-24.264 3.033z" fill="#f7beaf"/><path d="M96.946 205.444c15.052 0 27.383 12.302 27.383 27.354v29.225c13.55.879 24.265-3.033 24.265-3.033v-26.192c0-15.052-12.33-27.354-27.354-27.354z" fill="#bd7d79"/><path d="M167.644 368.635v111.231c-.964 7.597-6.974 13.607-14.57 14.57h24.265c7.597-.963 13.606-6.973 14.57-14.57V368.635c0-24.293-19.899-44.192-44.193-44.192h-18.991c-.114.113-.256.198-.369.284 22.024 2.465 39.288 21.259 39.288 43.908z" fill="#8abfff"/><path d="M480.252 368.635v111.231c-.964 7.597-6.974 13.607-14.57 14.57h24.265c7.597-.963 13.606-6.973 14.57-14.57V368.635c0-24.293-19.899-44.192-44.192-44.192h-23.727c24.066.311 43.654 20.069 43.654 44.192zM300.59 415.661c-6.321 6.35-14.882 8.958-23.046 7.994 10.97 10.828 28.573 10.459 39.175-.142l31.721-31.719V373.028c-.029-2.041-2.58-3.033-4.054-1.134z" fill="#d7bef0"/><path d="M251.436 129.079v8.589c0 8.618 7.059 15.676 15.676 15.676h45.609l17.377 23.074c3.742 4.96 7.342 4.337 10.63 0l17.349-23.074h130.764c8.617 0 15.676-7.058 15.676-15.676v-104.4c0-8.617-7.059-15.676-15.676-15.676h-8.589v95.812c0 8.617-7.059 15.675-15.676 15.675z" fill="#cbe2ff"/></g><path d="M376.134 331.954h-20.92c-17.462 0-30.897 14.457-43.654 28.233-3.232 3.458-6.406 6.86-9.212 9.666-2.92 2.948-7.654 2.948-10.602 0l-29.482-29.481c-7.908-7.88-20.806-7.88-28.686 0-7.852 7.852-7.852 20.863 0 28.715l12.558 12.558c2.92 2.92 2.92 7.682 0 10.602a7.546 7.546 0 01-10.631 0l-12.528-12.558c-13.691-13.663-13.691-36.255 0-49.918 13.72-13.72 36.17-13.72 49.89 0l24.095 24.095a226.137 226.137 0 003.629-3.884c14.939-16.101 30.671-33.023 54.624-33.023h5.755c-6.266-9.099-9.95-20.126-9.95-31.946v-52.555c0-9.638 3.94-18.368 10.262-24.718 6.35-6.321 15.08-10.262 24.719-10.262h43.172c9.638 0 18.369 3.94 24.719 10.262 6.321 6.35 10.261 15.08 10.261 24.718v52.555c0 11.82-3.685 22.847-9.949 31.946h6.123c14.23 0 27.156 5.811 36.511 15.166 9.353 9.382 15.165 22.28 15.165 36.51v125.801a7.476 7.476 0 01-7.483 7.484H348.439c-4.139 0-7.513-3.345-7.513-7.484v-84.529l-18.906 18.907c-6.832 6.832-15.903 10.318-25.003 10.318-8.985 0-18-3.402-24.917-10.318l-12.557-12.557c-2.92-2.92-2.92-7.654 0-10.602 2.919-2.92 7.682-2.92 10.602 0l12.558 12.557a20.172 20.172 0 0014.314 5.924c5.244 0 10.488-2.012 14.4-5.924l31.721-31.719c2.919-2.92 7.653-2.92 10.602 0a7.54 7.54 0 012.183 5.301v95.13h91.191v-97.257c0-4.138 3.373-7.512 7.512-7.512s7.483 3.373 7.483 7.512v97.257h34.896v-118.29c0-10.063-4.139-19.248-10.771-25.909-6.662-6.633-15.818-10.772-25.909-10.772l-21.26-.028a56.015 56.015 0 01-31.494 9.638 56.012 56.012 0 01-31.437-9.609zm-234.882-61.88l-50.003-16.951-33.109 16.214v15.676c0 11.423 4.677 21.798 12.217 29.338 7.541 7.54 17.916 12.217 29.34 12.217 11.423 0 21.827-4.677 29.339-12.217 7.54-7.54 12.217-17.915 12.217-29.338v-14.939zM58.14 252.698l28.886-14.117a7.413 7.413 0 016.122-.624l48.104 16.299v-21.799c0-5.499-2.239-10.488-5.867-14.116-3.601-3.6-8.589-5.868-14.088-5.868H78.096c-5.471 0-10.46 2.268-14.089 5.896-3.6 3.6-5.867 8.589-5.867 14.088zm390.987 15.533c-12.699 2.126-35.207 2.721-53.462-14.031-6.151 3.77-16.725 8.447-29.622 6.831v23.982c0 11.423 4.677 21.798 12.188 29.338 7.54 7.54 17.944 12.217 29.339 12.217 11.424 0 21.827-4.677 29.368-12.217 7.512-7.54 12.189-17.915 12.189-29.338zm-83.084-22.308c9.155 1.757 18.595-1.162 25.597-7.2 3.118-2.693 7.853-2.353 10.545.766 15.506 17.83 37.248 15.675 46.942 13.549v-20.58c0-5.499-2.239-10.488-5.867-14.116-3.601-3.6-8.59-5.868-14.089-5.868h-43.172c-5.5 0-10.488 2.268-14.089 5.896a19.79 19.79 0 00-5.867 14.088zm-209.795 39.09a56.19 56.19 0 01-9.922 31.946h1.389c14.23 0 27.157 5.811 36.511 15.166 9.354 9.382 15.166 22.28 15.166 36.51v125.801a7.476 7.476 0 01-7.483 7.484H7.514c-4.139 0-7.513-3.345-7.513-7.484V368.635c0-14.23 5.812-27.128 15.194-36.51 9.354-9.355 22.28-15.166 36.482-15.166h1.417c-6.265-9.099-9.949-20.126-9.949-31.946v-52.555c0-9.638 3.939-18.368 10.261-24.718 6.35-6.321 15.081-10.262 24.69-10.262h43.201c9.638 0 18.368 3.94 24.689 10.262 6.35 6.35 10.262 15.08 10.262 24.718zm-25.059 46.913a56.011 56.011 0 01-31.493 9.638 55.992 55.992 0 01-31.466-9.638l-16.554.028c-10.063 0-19.248 4.139-25.881 10.772-6.661 6.661-10.8 15.846-10.8 25.909v118.29h34.894v-97.257a7.507 7.507 0 017.512-7.512c4.139 0 7.483 3.373 7.483 7.512v97.257h69.62v-97.257c0-4.138 3.373-7.512 7.512-7.512s7.512 3.373 7.512 7.512v97.257h34.867v-118.29c0-10.063-4.11-19.248-10.773-25.909-6.661-6.633-15.817-10.772-25.909-10.772zm167.19-270.964c-4.139 0-7.483-3.373-7.483-7.512s3.345-7.483 7.483-7.483h159.195c4.139 0 7.483 3.345 7.483 7.483s-3.345 7.512-7.483 7.512zm0 64.007a7.476 7.476 0 01-7.483-7.484c0-4.138 3.345-7.512 7.483-7.512h124.867c4.139 0 7.483 3.374 7.483 7.512a7.476 7.476 0 01-7.483 7.484zm0-32.004c-4.139 0-7.483-3.345-7.483-7.512a7.476 7.476 0 017.483-7.483h159.195a7.476 7.476 0 017.483 7.483c0 4.167-3.345 7.512-7.483 7.512zM82.632 68.446c0 4.138-3.346 7.512-7.484 7.512-4.139 0-7.512-3.374-7.512-7.512 0-8.844 3.6-16.866 9.383-22.677 5.812-5.783 13.833-9.383 22.678-9.383 8.872 0 16.866 3.6 22.678 9.383a31.963 31.963 0 019.382 22.677c0 8.872-3.571 16.866-9.382 22.677-4.111 4.11-9.327 7.115-15.166 8.504-.198 3.968-3.487 7.143-7.512 7.143-4.139 0-7.483-3.373-7.483-7.512v-6.236c0-4.139 3.345-7.512 7.483-7.512 4.733 0 8.985-1.899 12.075-4.989s4.989-7.342 4.989-12.076c0-4.706-1.899-8.986-4.989-12.047-3.09-3.09-7.342-5.017-12.075-5.017a16.945 16.945 0 00-12.048 5.017 16.941 16.941 0 00-5.017 12.048zm9.581 57.6a7.476 7.476 0 017.483-7.484c4.139 0 7.512 3.345 7.512 7.484v4.592c0 4.139-3.373 7.483-7.512 7.483s-7.483-3.345-7.483-7.483zm302.743-100.97a7.476 7.476 0 01-7.483-7.484c0-4.138 3.345-7.512 7.483-7.512h93.885c6.378 0 12.161 2.608 16.357 6.803S512 26.89 512 33.268v104.4c0 6.378-2.607 12.189-6.803 16.384-4.195 4.195-9.979 6.803-16.357 6.803H361.79l-20.41 27.099c-3.033 4.054-9.128 3.94-12.048-.142l-20.296-26.958h-41.925c-6.378 0-12.161-2.608-16.356-6.803s-6.803-10.006-6.803-16.384v-104.4c0-6.378 2.607-12.189 6.803-16.384 4.195-4.195 9.979-6.803 16.356-6.803h93.885c4.139 0 7.483 3.374 7.483 7.512a7.476 7.476 0 01-7.483 7.484h-93.885c-2.239 0-4.28.935-5.755 2.409a8.144 8.144 0 00-2.409 5.783v104.4c0 2.24.907 4.281 2.409 5.783 1.475 1.474 3.516 2.41 5.755 2.41h45.609a7.45 7.45 0 015.981 3.004l16.696 22.167 16.3-21.628a7.514 7.514 0 016.378-3.543h130.764c2.239 0 4.28-.936 5.755-2.41a8.144 8.144 0 002.409-5.783v-104.4c0-2.239-.907-4.28-2.409-5.783-1.475-1.474-3.516-2.409-5.755-2.409zm-278.252 0c-4.167 0-7.512-3.345-7.512-7.484a7.507 7.507 0 017.512-7.512h40.706c6.434 0 12.274 2.637 16.526 6.86 4.224 4.252 6.859 10.091 6.859 16.525v104.003c0 6.435-2.636 12.274-6.859 16.526-4.252 4.224-10.092 6.86-16.526 6.86h-31.323l-20.41 27.099c-3.033 4.054-9.127 3.94-12.047-.142l-20.297-26.958H42.011c-6.464 0-12.303-2.636-16.526-6.86-4.224-4.252-6.86-10.091-6.86-16.526V33.466c0-6.435 2.637-12.273 6.86-16.525 4.224-4.224 10.063-6.86 16.526-6.86h40.706c4.139 0 7.512 3.374 7.512 7.512 0 4.139-3.373 7.484-7.512 7.484H42.011c-2.297 0-4.395.963-5.925 2.466a8.356 8.356 0 00-2.467 5.924V137.47c0 2.296.936 4.394 2.467 5.924 1.53 1.502 3.628 2.466 5.925 2.466h35.008A7.452 7.452 0 0183 148.864l16.696 22.167 16.299-21.628a7.515 7.515 0 016.379-3.543h35.036c2.296 0 4.393-.964 5.925-2.466 1.502-1.531 2.466-3.628 2.466-5.924V33.466c0-2.296-.964-4.394-2.466-5.924-1.531-1.503-3.629-2.466-5.925-2.466z"/></svg>